<svg width="10" height="6" viewBox="0 0 10 6" fill="none" xmlns="http://www.w3.org/2000/svg">
<path d="M0.53125 1.79688L4.53125 5.79688C4.65625 5.93229 4.8125 6 5 6C5.1875 6 5.34375 5.93229 5.46875 5.79688L9.46875 1.79688C9.60417 1.67188 9.67188 1.52083 9.67188 1.34375C9.67188 1.15625 9.60417 0.994792 9.46875 0.859375C9.34375 0.734375 9.1875 0.671875 9 0.671875C8.8125 0.671875 8.65625 0.734375 8.53125 0.859375L5 4.39062L1.46875 0.859375C1.34375 0.734375 1.1875 0.671875 1 0.671875C0.8125 0.671875 0.65625 0.734375 0.53125 0.859375C0.395833 0.994792 0.328125 1.15625 0.328125 1.34375C0.328125 1.52083 0.395833 1.67188 0.53125 1.79688Z" fill="#8991A4"/>
</svg>
