<svg width="14" height="15" viewBox="0 0 14 15" fill="none" xmlns="http://www.w3.org/2000/svg">
<path d="M3.67188 0.671875V1.32812H2.32812C2.05729 1.32812 1.79688 1.38021 1.54688 1.48438C1.30729 1.58854 1.09896 1.73438 0.921875 1.92188C0.744792 2.09896 0.598958 2.3125 0.484375 2.5625C0.380208 2.80208 0.328125 3.05729 0.328125 3.32812V12.6719C0.328125 12.9427 0.380208 13.2031 0.484375 13.4531C0.588542 13.6927 0.734375 13.901 0.921875 14.0781C1.09896 14.2552 1.30729 14.3958 1.54688 14.5C1.79688 14.6146 2.05729 14.6719 2.32812 14.6719H11.6719C11.9427 14.6719 12.1979 14.6198 12.4375 14.5156C12.6875 14.4115 12.901 14.2656 13.0781 14.0781C13.2552 13.901 13.3958 13.6927 13.5 13.4531C13.6146 13.2031 13.6719 12.9427 13.6719 12.6719V3.32812C13.6719 3.05729 13.6198 2.80208 13.5156 2.5625C13.4115 2.3125 13.2656 2.09896 13.0781 1.92188C12.901 1.74479 12.6875 1.60417 12.4375 1.5C12.1979 1.38542 11.9427 1.32812 11.6719 1.32812H10.3281V0.671875C10.3281 0.484375 10.2604 0.328125 10.125 0.203125C10 0.0677083 9.84896 0 9.67188 0C9.48438 0 9.32292 0.0677083 9.1875 0.203125C9.0625 0.328125 9 0.484375 9 0.671875V1.32812H5V0.671875C5 0.484375 4.93229 0.328125 4.79688 0.203125C4.67188 0.0677083 4.51562 0 4.32812 0C4.15104 0 3.99479 0.0677083 3.85938 0.203125C3.73438 0.328125 3.67188 0.484375 3.67188 0.671875ZM12.3281 5.32812H1.67188V3.32812C1.67188 3.24479 1.6875 3.16146 1.71875 3.07812C1.75 2.99479 1.79688 2.92188 1.85938 2.85938C1.92188 2.79688 1.98958 2.75 2.0625 2.71875C2.14583 2.6875 2.23438 2.67188 2.32812 2.67188H3.67188V3.32812C3.67188 3.51562 3.73438 3.67708 3.85938 3.8125C3.99479 3.9375 4.15104 4 4.32812 4C4.51562 4 4.67188 3.9375 4.79688 3.8125C4.93229 3.67708 5 3.51562 5 3.32812V2.67188H9V3.32812C9 3.51562 9.0625 3.67708 9.1875 3.8125C9.32292 3.9375 9.48438 4 9.67188 4C9.84896 4 10 3.9375 10.125 3.8125C10.2604 3.67708 10.3281 3.51562 10.3281 3.32812V2.67188H11.6719C11.7552 2.67188 11.8385 2.6875 11.9219 2.71875C12.0052 2.75 12.0781 2.79688 12.1406 2.85938C12.2031 2.92188 12.25 2.99479 12.2812 3.07812C12.3125 3.16146 12.3281 3.24479 12.3281 3.32812V5.32812ZM1.67188 6.67188H12.3281V12.6719C12.3281 12.7552 12.3125 12.8385 12.2812 12.9219C12.25 13.0052 12.2031 13.0781 12.1406 13.1406C12.0781 13.2031 12.0052 13.25 11.9219 13.2812C11.849 13.3125 11.7656 13.3281 11.6719 13.3281H2.32812C2.24479 13.3281 2.16146 13.3125 2.07812 13.2812C1.99479 13.25 1.92188 13.2031 1.85938 13.1406C1.79688 13.0781 1.75 13.0052 1.71875 12.9219C1.6875 12.8385 1.67188 12.7552 1.67188 12.6719V6.67188Z" fill="#8991A4"/>
</svg>
