<svg width="24" height="24" viewBox="0 0 24 24" fill="none" xmlns="http://www.w3.org/2000/svg">
<path d="M7.51758 18.2415C7.51758 19.2111 8.30661 20.0002 9.2762 20.0002C10.2458 20.0002 11.0348 19.2111 11.0348 18.2415C11.0348 17.2719 10.2458 16.4829 9.2762 16.4829C8.30661 16.4829 7.51758 17.2719 7.51758 18.2415ZM9.86241 18.2415C9.86241 18.5645 9.5992 18.8277 9.2762 18.8277C8.9532 18.8277 8.68999 18.5645 8.68999 18.2415C8.68999 17.9185 8.9532 17.6553 9.2762 17.6553C9.5992 17.6553 9.86241 17.9185 9.86241 18.2415Z" fill="#24A11E" stroke="#24A11E" stroke-width="0.1"/>
<path d="M18.068 18.2415C18.068 17.2719 17.279 16.4829 16.3094 16.4829C15.3398 16.4829 14.5508 17.2719 14.5508 18.2415C14.5508 19.2111 15.3398 20.0002 16.3094 20.0002C17.279 20.0002 18.068 19.2111 18.068 18.2415ZM15.7232 18.2415C15.7232 17.9185 15.9864 17.6553 16.3094 17.6553C16.6324 17.6553 16.8956 17.9185 16.8956 18.2415C16.8956 18.5645 16.6324 18.8277 16.3094 18.8277C15.9864 18.8277 15.7232 18.5645 15.7232 18.2415Z" fill="#24A11E" stroke="#24A11E" stroke-width="0.1"/>
<path d="M5.81724 4.17241C5.88993 4.86472 6.6989 12.5487 6.82376 13.7358C6.91814 14.6333 7.67024 15.3103 8.573 15.3103H17.7079C18.5315 15.3103 19.2549 14.7253 19.4278 13.9199L20.8359 7.34907C20.9103 7.00086 20.8247 6.64269 20.6008 6.36659C20.3769 6.0899 20.0445 5.93103 19.6887 5.93103H7.18134L6.9281 3.52524C6.89645 3.22628 6.64497 3 6.34483 3H4.58621C4.26262 3 4 3.26262 4 3.58621C4 3.90979 4.26262 4.17241 4.58621 4.17241H5.81724ZM19.6887 7.10345L18.2812 13.6742C18.2231 13.9427 17.9822 14.1379 17.7073 14.1379H8.573C8.27169 14.1379 8.02138 13.9122 7.98972 13.6133L7.30445 7.10345H19.6887Z" fill="#24A11E" stroke="#24A11E" stroke-width="0.1"/>
</svg>
